<svg xmlns="http://www.w3.org/2000/svg" viewBox="0 0 750 500"><g id="freepik--Floor--inject-15"><path d="M719.25,442.05c0,.15-154.14.26-344.23.26s-344.27-.11-344.27-.26,154.11-.26,344.27-.26S719.25,441.91,719.25,442.05Z" style="fill:#263238"></path></g><g id="freepik--Device--inject-15"><path d="M290.1,38.25H496.45a0,0,0,0,1,0,0V234.78A16.22,16.22,0,0,1,480.23,251H290.1a0,0,0,0,1,0,0V38.25A0,0,0,0,1,290.1,38.25Z" style="fill:#ebebeb"></path><path d="M479.41,101.57c0,.43-37.29.78-83.29.78s-83.31-.35-83.31-.78,37.29-.78,83.31-.78S479.41,101.14,479.41,101.57Z" style="fill:#455a64"></path><path d="M397.1,116c0,.43-18.42.78-41.15.78s-41.16-.35-41.16-.78,18.43-.78,41.16-.78S397.1,115.55,397.1,116Z" style="fill:#455a64"></path><path d="M430,114.65c0,.43-4.88.78-10.9.78s-10.9-.35-10.9-.78,4.88-.78,10.9-.78S430,114.22,430,114.65Z" style="fill:#455a64"></path><path d="M483.86,113.76c0,.43-9.66.78-21.58.78s-21.58-.35-21.58-.78,9.66-.78,21.58-.78S483.86,113.33,483.86,113.76Z" style="fill:#455a64"></path><path d="M390.23,129.77c0,.44-17.33.79-38.71.79s-38.71-.35-38.71-.79,17.33-.78,38.71-.78S390.23,129.34,390.23,129.77Z" style="fill:#455a64"></path><path d="M483.86,129.38c0,.43-18.92.78-42.26.78s-42.27-.35-42.27-.78,18.92-.78,42.27-.78S483.86,128.94,483.86,129.38Z" style="fill:#455a64"></path><path d="M483.86,143.26c0,.43-8.42.78-18.82.78s-18.82-.35-18.82-.78,8.43-.79,18.82-.79S483.86,142.82,483.86,143.26Z" style="fill:#455a64"></path><path d="M406,86.12c0,.43-20.42.78-45.6.78s-45.61-.35-45.61-.78,20.42-.78,45.61-.78S406,85.69,406,86.12Z" style="fill:#EF4136"></path><rect x="118.77" y="157.42" width="428.67" height="283.47" rx="14.57" style="fill:#263238"></rect><path d="M101.44,419.92H565.86a0,0,0,0,1,0,0v7a17.8,17.8,0,0,1-17.8,17.8H119.24a17.8,17.8,0,0,1-17.8-17.8v-7a0,0,0,0,1,0,0Z" style="fill:#263238"></path><rect x="130.87" y="168.68" width="404.45" height="239.39" style="fill:#455a64"></rect><path d="M291.44,419.92h1.81l5.28,0,19.59-.08,65.53-.14h.48l-.24.42-2.6,4.46-2.75,4.71-.08.14h-.16l-81.1-.15h-.07l0-.06-4.25-6.91-1.07-1.75-.34-.58s.15.21.4.61l1.14,1.75c1,1.55,2.44,3.81,4.33,6.74l-.11-.06,81.1-.15-.24.14,2.75-4.71,2.6-4.46.24.42-65.26-.14L298.7,420l-5.36,0h-1.41Z" style="fill:#455a64"></path><path d="M547.43,419.92c0,.15-96,.26-214.32.26s-214.34-.11-214.34-.26,95.94-.26,214.34-.26S547.43,419.78,547.43,419.92Z" style="fill:#455a64"></path><path d="M438,120.87h0a12,12,0,0,1,12,12v24.57H414.2V134.75a13.87,13.87,0,0,1,13.88-13.88Z" style="fill:#263238"></path><path d="M438,120.87c0,.15-33.78.23-75.45.2s-75.45-.19-75.45-.33,33.77-.23,75.45-.2S438,120.73,438,120.87Z" style="fill:#263238"></path><path d="M437.72,120.84l-14.94-.1-21.69.13H241.75a24.5,24.5,0,0,0-24.5,24.5V408.64H423.61V134.3C424.22,120.87,437.72,120.84,437.72,120.84Z" style="fill:#fafafa"></path><path d="M437.72,120.84l-124.43.27-62.21,0H243.3c-1.3,0-2.58,0-3.86.11a25.5,25.5,0,0,0-3.77.69,24.06,24.06,0,0,0-16.5,14.8c-.2.61-.48,1.19-.62,1.81l-.47,1.86a25.88,25.88,0,0,0-.45,3.81c-.11,5.15,0,10.36,0,15.54l.17,248.85-.5-.5,206.36.14-.36.36.1-148,.12-74,.07-37,0-9.25v-4.63a14.88,14.88,0,0,1,.09-2.31,12.6,12.6,0,0,1,.37-2.28,12.23,12.23,0,0,1,5-7.53,14.49,14.49,0,0,1,4.15-2A17.58,17.58,0,0,1,437.72,120.84Zm0,0a17.46,17.46,0,0,0-4.54.81,14.47,14.47,0,0,0-4.14,2,12.13,12.13,0,0,0-4.94,7.52,12.34,12.34,0,0,0-.36,2.27,16.17,16.17,0,0,0-.08,2.31v13.87l.08,37,.12,74,.09,148V409h-.37l-206.36.13h-.49v-.5l.16-248.85c0-5.19,0-10.36.07-15.57a27.08,27.08,0,0,1,.46-3.91l.5-1.9c.14-.64.43-1.24.63-1.86a24.68,24.68,0,0,1,16.94-15.16,26.6,26.6,0,0,1,3.87-.7c1.31-.07,2.62-.14,3.91-.11h7.78l62.21,0Z" style="fill:#263238"></path><path d="M248.34,168.24h36l.06,12.06h-1.73q-.84-6.47-4.84-8.76a15,15,0,0,0-6.72-1.37v31.5c0,2.21.38,3.67,1.15,4.39s2.37,1.08,4.81,1.08v1.52H255.76v-1.52c2.33,0,3.89-.37,4.65-1.1s1.16-2.18,1.16-4.37v-31.5a15.37,15.37,0,0,0-6.72,1.37c-2.86,1.57-4.48,4.48-4.85,8.76h-1.72Z" style="fill:#EF4136"></path><path d="M395.29,171c0,.43-19.86.78-44.36.78s-44.36-.35-44.36-.78,19.86-.78,44.36-.78S395.29,170.53,395.29,171Z" style="fill:#EF4136"></path><path d="M342.65,185.14c0,.43-7.68.78-17.15.78s-17.15-.35-17.15-.78,7.68-.79,17.15-.79S342.65,184.7,342.65,185.14Z" style="fill:#455a64"></path><path d="M299.41,228.38c0,.43-14.58.78-32.57.78s-32.58-.35-32.58-.78,14.58-.78,32.58-.78S299.41,228,299.41,228.38Z" style="fill:#455a64"></path><path d="M373.19,228.38c0,.43-14.59.78-32.57.78s-32.58-.35-32.58-.78,14.58-.78,32.58-.78S373.19,228,373.19,228.38Z" style="fill:#EF4136"></path><path d="M299.41,239.93c0,.43-14.58.78-32.57.78s-32.58-.35-32.58-.78,14.58-.78,32.58-.78S299.41,239.5,299.41,239.93Z" style="fill:#455a64"></path><path d="M299.41,251.48c0,.43-14.58.78-32.57.78s-32.58-.35-32.58-.78,14.58-.79,32.58-.79S299.41,251,299.41,251.48Z" style="fill:#EF4136"></path><path d="M342.65,208.66c0,.43-7.68.78-17.15.78s-17.15-.35-17.15-.78,7.68-.78,17.15-.78S342.65,208.23,342.65,208.66Z" style="fill:#455a64"></path><path d="M402.15,228.38c0,.43-5.12.78-11.43.78s-11.44-.35-11.44-.78,5.12-.78,11.44-.78S402.15,228,402.15,228.38Z" style="fill:#455a64"></path><path d="M408.27,185.14c0,.43-13.18.78-29.43.78s-29.43-.35-29.43-.78,13.17-.79,29.43-.79S408.27,184.7,408.27,185.14Z" style="fill:#455a64"></path><path d="M405.61,196.4c0,.43-21.77.78-48.63.78s-48.63-.35-48.63-.78,21.77-.78,48.63-.78S405.61,196,405.61,196.4Z" style="fill:#455a64"></path><path d="M402.15,239.93c0,.43-21.07.78-47,.78s-47.06-.35-47.06-.78,21.06-.78,47.06-.78S402.15,239.5,402.15,239.93Z" style="fill:#455a64"></path><path d="M402.15,273.36c0,.43-19.77.78-44.15.78s-44.16-.35-44.16-.78,19.77-.78,44.16-.78S402.15,272.93,402.15,273.36Z" style="fill:#EF4136"></path><path d="M402.15,284.6c0,.43-19.77.78-44.15.78s-44.16-.35-44.16-.78,19.77-.78,44.16-.78S402.15,284.17,402.15,284.6Z" style="fill:#455a64"></path><path d="M402.15,295.84c0,.43-19.77.78-44.15.78s-44.16-.35-44.16-.78,19.77-.78,44.16-.78S402.15,295.41,402.15,295.84Z" style="fill:#455a64"></path><path d="M402.15,307.08c0,.43-19.77.78-44.15.78s-44.16-.35-44.16-.78,19.77-.78,44.16-.78S402.15,306.65,402.15,307.08Z" style="fill:#455a64"></path><path d="M364.68,318.32c0,.21-2.85.41-7.45.55s-11,.23-18,.23-13.38-.09-18-.23-7.44-.34-7.44-.55,2.84-.41,7.44-.55,11-.23,18-.23,13.37.09,18,.23S364.68,318.1,364.68,318.32Z" style="fill:#455a64"></path><path d="M386.15,252.08c0,.43-17,.78-38,.78s-38-.35-38-.78,17-.78,38-.78S386.15,251.65,386.15,252.08Z" style="fill:#455a64"></path><polygon points="297.87 274.63 302.56 361.39 217.73 372.01 217.66 273.89 297.87 274.63" style="fill:#e0e0e0"></polygon><rect x="199.27" y="257.44" width="92.04" height="115.12" transform="translate(-71.28 558.26) rotate(-89.63)" style="fill:#f5f5f5"></rect><rect x="204.99" y="261.48" width="80.45" height="107.03" transform="translate(-71.35 558.19) rotate(-89.63)" style="fill:#EF4136"></rect><g style="opacity:0.2"><polygon points="191.44 354.88 229.15 305.12 252.1 336.55 267.92 319.93 298.48 355.57 191.44 354.88"></polygon></g><g style="opacity:0.2"><path d="M262.17,299.2a8.43,8.43,0,1,1-8.37-8.48A8.42,8.42,0,0,1,262.17,299.2Z"></path></g><path d="M313.64,383.1a1.78,1.78,0,1,1-1.78-1.78A1.77,1.77,0,0,1,313.64,383.1Z" style="fill:#263238"></path><path d="M324.21,383.1a1.78,1.78,0,1,1-1.78-1.78A1.78,1.78,0,0,1,324.21,383.1Z" style="fill:#263238"></path><path d="M334.77,383.1a1.78,1.78,0,1,1-1.78-1.78A1.78,1.78,0,0,1,334.77,383.1Z" style="fill:#263238"></path><path d="M373.69,341.74c0,.43-14.59.78-32.58.78s-32.58-.35-32.58-.78,14.59-.78,32.58-.78S373.69,341.31,373.69,341.74Z" style="fill:#EF4136"></path><path d="M402.65,353.29c0,.43-21.07.78-47.06.78s-47.06-.35-47.06-.78,21.07-.78,47.06-.78S402.65,352.86,402.65,353.29Z" style="fill:#455a64"></path></g><g id="freepik--Box--inject-15"><rect x="616.47" y="365.8" width="55.44" height="69.34" transform="matrix(0.01, -1, 1, 0.01, 239.59, 1042.08)" style="fill:#f5f5f5"></rect><rect x="619.91" y="368.23" width="48.46" height="64.47" transform="translate(239.54 1042.03) rotate(-89.63)" style="fill:#EF4136"></rect><polygon points="611.75 424.49 634.46 394.52 648.29 413.45 657.82 403.44 676.22 424.91 611.75 424.49" style="opacity:0.2"></polygon><g style="opacity:0.2"><path d="M654.36,391a5.08,5.08,0,1,1-5.05-5.1A5.08,5.08,0,0,1,654.36,391Z"></path></g><rect x="606.3" y="360.01" width="55.44" height="69.34" transform="translate(235.27 1026.15) rotate(-89.63)" style="fill:#f5f5f5"></rect><rect x="609.75" y="362.45" width="48.46" height="64.47" transform="translate(235.23 1026.11) rotate(-89.63)" style="fill:#EF4136"></rect><polygon points="601.58 418.7 624.29 388.73 638.12 407.66 647.65 397.65 666.05 419.12 601.58 418.7" style="opacity:0.2"></polygon><g style="opacity:0.2"><path d="M644.19,385.17a5.08,5.08,0,1,1-5-5.11A5.08,5.08,0,0,1,644.19,385.17Z"></path></g><rect x="597.24" y="355.23" width="55.44" height="69.34" transform="translate(231.06 1012.35) rotate(-89.63)" style="fill:#f5f5f5"></rect><rect x="600.69" y="357.66" width="48.46" height="64.47" transform="translate(231.02 1012.3) rotate(-89.63)" style="fill:#EF4136"></rect><polygon points="592.53 413.92 615.24 383.94 629.07 402.88 638.59 392.86 657 414.33 592.53 413.92" style="opacity:0.2"></polygon><g style="opacity:0.2"><path d="M635.13,380.38a5.08,5.08,0,1,1-5-5.11A5.08,5.08,0,0,1,635.13,380.38Z"></path></g><rect x="587.08" y="361.18" width="55.44" height="69.34" transform="matrix(0.01, -1, 1, 0.01, 215, 1008.09)" style="fill:#f5f5f5"></rect><rect x="590.52" y="363.62" width="48.46" height="64.47" transform="translate(214.96 1008.05) rotate(-89.63)" style="fill:#455a64"></rect><polygon points="582.36 419.88 605.07 389.9 618.9 408.83 628.42 398.82 646.83 420.29 582.36 419.88" style="opacity:0.2"></polygon><g style="opacity:0.2"><path d="M625,386.34a5.08,5.08,0,1,1-5-5.11A5.06,5.06,0,0,1,625,386.34Z"></path></g><rect x="649.64" y="388.53" width="40.03" height="53.53" style="fill:#263238"></rect><path d="M573,388.53v53.52H653V388.53Zm48.55,12.66h-17a3.68,3.68,0,0,1,0-7.36h17a3.68,3.68,0,1,1,0,7.36Z" style="fill:#EF4136"></path></g></svg>