<?xml version="1.0" standalone="no"?>
<!DOCTYPE svg PUBLIC "-//W3C//DTD SVG 20010904//EN"
 "http://www.w3.org/TR/2001/REC-SVG-20010904/DTD/svg10.dtd">
<svg version="1.0" xmlns="http://www.w3.org/2000/svg"
 width="5000.000000pt" height="5000.000000pt" viewBox="0 0 5000.000000 5000.000000"
 preserveAspectRatio="xMidYMid meet">

<g transform="translate(0.000000,5000.000000) scale(0.100000,-0.100000)"
fill="#000000" stroke="none">
<path d="M24575 46560 c-44 -5 -185 -8 -313 -8 -127 1 -235 -2 -239 -5 -3 -4
-45 -7 -92 -7 -165 0 -556 -21 -574 -31 -11 -6 -47 -10 -80 -9 -34 1 -69 0
-77 -3 -8 -3 -96 -10 -195 -17 -99 -6 -189 -15 -200 -19 -11 -5 -108 -16 -215
-26 -107 -9 -204 -20 -215 -25 -11 -5 -92 -16 -180 -25 -88 -9 -169 -20 -180
-25 -11 -5 -81 -16 -155 -25 -74 -9 -144 -20 -155 -25 -11 -5 -76 -16 -145
-25 -69 -9 -134 -21 -146 -26 -11 -6 -27 -10 -35 -8 -8 1 -21 -1 -29 -4 -8 -3
-53 -13 -100 -21 -215 -39 -326 -62 -335 -67 -5 -4 -55 -14 -110 -24 -55 -10
-104 -21 -110 -25 -5 -4 -55 -16 -110 -25 -55 -10 -104 -21 -110 -25 -5 -5
-50 -16 -100 -26 -49 -9 -94 -20 -100 -24 -5 -4 -46 -15 -90 -24 -44 -9 -89
-21 -100 -26 -19 -9 -173 -48 -205 -53 -8 -1 -17 -4 -20 -7 -3 -3 -36 -14 -75
-23 -75 -19 -82 -21 -105 -30 -13 -5 -112 -33 -145 -40 -5 -2 -14 -5 -20 -9
-5 -3 -36 -11 -68 -19 -32 -7 -60 -16 -63 -20 -2 -5 -11 -6 -19 -2 -8 3 -15 1
-15 -4 0 -6 -26 -15 -57 -22 -32 -7 -71 -19 -88 -26 -16 -8 -50 -19 -75 -25
-25 -7 -58 -18 -75 -25 -16 -7 -57 -21 -90 -30 -33 -9 -64 -20 -70 -24 -5 -4
-39 -16 -75 -26 -36 -10 -69 -22 -75 -26 -5 -3 -37 -14 -70 -24 -33 -9 -64
-21 -70 -25 -5 -4 -32 -15 -60 -23 -60 -19 -178 -62 -220 -81 -16 -8 -48 -19
-70 -26 -22 -7 -44 -16 -50 -20 -5 -4 -35 -15 -65 -25 -30 -10 -64 -24 -75
-30 -11 -7 -41 -19 -67 -26 -27 -7 -48 -16 -48 -20 0 -4 -12 -10 -27 -14 -16
-3 -50 -17 -78 -30 -27 -12 -69 -29 -92 -36 -24 -6 -43 -15 -43 -19 0 -5 -11
-11 -25 -14 -14 -4 -55 -20 -91 -36 -35 -17 -67 -30 -70 -30 -4 0 -66 -28
-169 -75 -16 -8 -55 -25 -85 -38 -178 -80 -417 -194 -640 -307 -318 -160 -385
-195 -397 -206 -6 -6 -26 -17 -45 -24 -18 -8 -35 -16 -38 -19 -3 -3 -25 -16
-50 -28 -25 -13 -52 -27 -60 -33 -8 -5 -50 -28 -94 -52 -43 -24 -100 -55 -125
-70 -25 -15 -62 -35 -81 -45 -19 -10 -37 -21 -40 -24 -3 -4 -25 -17 -48 -30
-75 -41 -181 -104 -271 -159 -34 -22 -65 -40 -68 -40 -2 0 -24 -13 -48 -30
-24 -16 -46 -30 -49 -30 -3 0 -40 -23 -83 -51 -43 -29 -107 -71 -143 -94 -155
-99 -400 -263 -461 -307 -37 -26 -72 -48 -77 -48 -6 0 -15 -6 -19 -13 -4 -7
-39 -33 -78 -59 -38 -26 -87 -60 -108 -75 -21 -16 -63 -46 -95 -68 -51 -35
-162 -118 -217 -161 -11 -8 -56 -42 -100 -74 -86 -64 -110 -82 -153 -117 -15
-12 -85 -68 -157 -124 -71 -57 -157 -125 -191 -153 -33 -28 -78 -64 -98 -81
-65 -52 -88 -71 -221 -185 -232 -200 -325 -283 -610 -544 -144 -133 -710 -699
-851 -851 -222 -241 -350 -382 -394 -434 -25 -30 -56 -67 -70 -82 -62 -67
-327 -384 -453 -541 -74 -92 -237 -302 -352 -453 -65 -84 -344 -473 -405 -565
-6 -8 -31 -44 -55 -80 -73 -105 -119 -173 -130 -191 -5 -9 -22 -35 -37 -58
-62 -92 -83 -125 -93 -140 -50 -78 -76 -118 -83 -126 -4 -5 -27 -44 -52 -85
-50 -85 -85 -140 -99 -156 -5 -6 -19 -29 -30 -50 -12 -21 -29 -52 -39 -69 -10
-16 -31 -52 -47 -80 -16 -27 -32 -52 -35 -55 -4 -3 -13 -18 -22 -35 -8 -16
-32 -59 -53 -95 -21 -36 -45 -78 -53 -95 -9 -16 -18 -32 -21 -35 -4 -3 -15
-23 -26 -45 -11 -22 -23 -42 -26 -45 -6 -5 -39 -65 -134 -245 -93 -174 -154
-292 -206 -395 -33 -63 -63 -120 -69 -127 -5 -7 -10 -15 -10 -19 0 -4 -22 -52
-49 -108 -77 -159 -156 -325 -191 -401 -17 -38 -42 -92 -55 -120 -13 -27 -27
-62 -31 -77 -3 -16 -9 -28 -13 -28 -4 0 -16 -25 -26 -55 -11 -30 -22 -55 -25
-55 -4 0 -12 -19 -19 -42 -7 -23 -21 -58 -32 -77 -10 -20 -19 -39 -19 -43 0
-4 -11 -31 -24 -60 -13 -29 -27 -64 -31 -78 -4 -14 -13 -34 -20 -45 -6 -11
-18 -38 -25 -60 -7 -22 -18 -49 -25 -61 -7 -11 -20 -44 -29 -74 -9 -29 -20
-58 -25 -64 -4 -6 -16 -36 -26 -66 -10 -30 -21 -59 -25 -65 -4 -5 -15 -35 -25
-65 -10 -30 -21 -59 -25 -65 -4 -5 -15 -37 -26 -70 -10 -33 -20 -62 -24 -65
-3 -3 -15 -34 -25 -70 -10 -36 -22 -67 -25 -70 -4 -3 -14 -34 -24 -70 -10 -36
-22 -69 -26 -75 -4 -5 -13 -30 -20 -55 -6 -25 -18 -58 -25 -75 -17 -39 -85
-253 -85 -268 0 -7 -6 -23 -13 -37 -8 -14 -22 -57 -32 -95 -10 -39 -22 -75
-27 -81 -4 -6 -5 -14 -1 -17 3 -4 1 -12 -4 -19 -6 -7 -16 -38 -23 -68 -7 -30
-15 -59 -19 -65 -3 -5 -6 -14 -8 -20 -7 -34 -35 -132 -40 -145 -3 -8 -5 -19
-4 -24 1 -4 -2 -13 -8 -20 -5 -6 -14 -38 -21 -71 -7 -33 -16 -65 -21 -71 -5
-6 -6 -14 -2 -17 3 -4 1 -12 -4 -19 -6 -7 -16 -43 -24 -80 -7 -38 -16 -68 -21
-68 -4 0 -5 -7 -2 -15 4 -8 2 -21 -3 -28 -6 -6 -16 -41 -23 -77 -6 -36 -15
-69 -18 -75 -3 -5 -7 -16 -9 -25 -11 -69 -38 -176 -45 -178 -4 -2 -5 -8 -2
-14 4 -5 2 -20 -4 -31 -6 -12 -18 -65 -28 -117 -9 -52 -20 -99 -24 -105 -4 -5
-13 -46 -20 -90 -6 -44 -15 -84 -18 -89 -3 -6 -7 -19 -8 -30 -6 -43 -36 -202
-41 -216 -3 -8 -7 -24 -9 -35 -21 -129 -36 -213 -41 -225 -3 -8 -5 -25 -4 -38
2 -13 -2 -28 -7 -35 -5 -7 -15 -57 -22 -112 -7 -55 -15 -104 -18 -110 -4 -5
-5 -23 -3 -38 1 -15 -2 -33 -7 -40 -5 -7 -16 -65 -23 -129 -7 -65 -16 -118
-19 -118 -3 0 -4 -16 -2 -35 2 -19 0 -41 -6 -48 -5 -6 -15 -70 -21 -142 -7
-71 -15 -137 -18 -145 -3 -8 -5 -32 -4 -53 2 -21 -2 -43 -7 -50 -5 -7 -15 -84
-21 -172 -7 -88 -15 -167 -18 -175 -3 -8 -5 -37 -3 -63 1 -26 -3 -53 -8 -60
-5 -7 -15 -111 -22 -232 -6 -121 -16 -231 -20 -245 -21 -64 -38 -920 -41
-2115 -1 -539 -2 -4608 -1 -9042 l2 -8063 18030 0 18030 0 2 9038 c2 4970 0
9181 -4 9357 -7 338 -21 652 -39 875 -6 74 -12 164 -13 200 -1 36 -4 67 -5 70
-3 5 -39 374 -45 460 -1 25 -4 47 -5 50 -6 10 -42 336 -41 368 0 19 -3 39 -7
45 -8 13 -44 254 -44 297 0 14 -3 32 -6 40 -8 19 -44 247 -43 279 0 13 -4 29
-9 35 -4 6 -16 70 -26 141 -10 72 -21 132 -25 135 -3 3 -14 59 -24 125 -10 66
-22 125 -26 130 -4 6 -16 60 -25 120 -10 61 -21 115 -25 120 -4 6 -16 55 -25
110 -10 55 -21 105 -25 110 -4 6 -15 53 -25 105 -10 52 -21 100 -25 105 -5 6
-16 51 -26 100 -9 50 -20 95 -24 100 -5 6 -16 48 -25 95 -9 47 -21 90 -25 95
-4 6 -15 46 -25 90 -9 44 -21 85 -25 90 -4 6 -16 46 -25 90 -10 44 -21 82 -24
85 -4 3 -15 41 -25 85 -10 44 -22 85 -26 90 -5 6 -16 39 -24 75 -9 36 -21 74
-26 85 -5 11 -16 47 -25 80 -9 33 -20 69 -25 80 -5 11 -17 47 -26 80 -9 33
-20 65 -24 70 -4 6 -15 39 -25 75 -9 36 -21 70 -25 75 -5 6 -16 37 -25 70 -10
33 -21 65 -25 70 -4 6 -15 37 -25 70 -9 33 -21 65 -25 70 -4 6 -13 30 -20 55
-7 25 -20 63 -30 85 -10 22 -24 60 -31 85 -7 25 -16 47 -19 50 -5 5 -15 32
-72 190 -13 36 -26 67 -29 70 -3 3 -14 30 -24 60 -10 30 -24 64 -31 75 -8 11
-14 25 -14 32 0 7 -13 42 -30 78 -16 36 -30 69 -30 73 0 4 -8 23 -19 42 -10
19 -22 46 -26 60 -4 14 -18 48 -31 75 -19 43 -43 97 -49 115 -6 18 -37 88 -45
102 -5 10 -31 64 -56 120 -26 57 -58 128 -72 158 -14 30 -25 58 -24 63 1 4 -3
7 -8 7 -6 0 -10 6 -10 13 0 12 -279 578 -289 587 -4 3 -15 25 -26 50 -11 25
-22 47 -25 50 -3 3 -13 21 -22 40 -10 19 -43 80 -73 135 -31 55 -65 118 -76
140 -12 22 -33 61 -48 86 -95 168 -129 227 -153 268 -15 25 -37 64 -49 86 -12
22 -25 42 -29 45 -4 3 -17 23 -29 45 -27 51 -49 89 -84 142 -15 24 -27 45 -27
49 0 3 -6 11 -12 19 -7 7 -26 37 -43 65 -16 29 -54 88 -82 131 -29 44 -53 81
-53 83 0 3 -245 376 -280 426 -98 142 -131 188 -144 203 -9 9 -16 20 -16 23 0
4 -53 78 -78 109 -5 6 -17 24 -28 40 -10 17 -41 60 -69 96 -27 37 -57 76 -65
89 -13 18 -89 119 -158 207 -9 12 -39 52 -67 89 -65 86 -331 419 -407 509 -33
39 -76 90 -96 114 -42 51 -307 354 -337 386 -11 12 -51 57 -90 101 -215 244
-901 931 -1201 1204 -86 77 -182 163 -299 264 -55 48 -109 95 -120 105 -37 33
-342 286 -380 316 -22 17 -78 62 -125 100 -48 39 -102 81 -120 95 -18 14 -56
43 -84 65 -64 51 -240 185 -269 205 -12 8 -67 49 -123 90 -56 41 -111 82 -124
90 -12 8 -44 31 -70 50 -26 19 -56 41 -67 47 -10 7 -52 36 -93 66 -76 53 -503
337 -595 395 -27 17 -55 36 -61 41 -6 5 -25 16 -42 25 -27 14 -65 38 -122 77
-22 14 -88 54 -140 83 -25 14 -63 37 -85 51 -86 53 -180 108 -291 169 -49 27
-91 52 -94 55 -3 3 -21 14 -40 24 -19 10 -46 24 -60 32 -86 50 -321 175 -329
175 -5 0 -16 6 -23 13 -13 12 -569 291 -723 362 -44 20 -111 52 -150 70 -161
76 -204 95 -209 95 -3 0 -34 13 -68 29 -35 15 -99 43 -143 62 -44 18 -89 39
-100 46 -11 7 -25 13 -32 13 -7 0 -42 14 -78 30 -36 17 -71 30 -78 30 -7 0
-21 6 -32 14 -11 7 -45 21 -75 31 -30 10 -57 21 -60 24 -3 3 -32 16 -65 28
-33 12 -89 32 -125 45 -36 12 -67 25 -70 29 -3 3 -32 13 -65 23 -33 11 -64 22
-70 26 -5 5 -37 16 -70 25 -33 10 -64 21 -70 25 -5 4 -35 15 -65 25 -30 9 -68
23 -85 30 -16 7 -50 19 -75 25 -25 7 -49 16 -55 20 -5 4 -39 16 -75 25 -36 10
-69 21 -75 25 -5 5 -39 16 -75 25 -36 10 -69 21 -75 25 -5 4 -41 15 -80 25
-38 10 -76 22 -82 28 -7 5 -13 6 -13 2 0 -4 -6 -3 -12 2 -7 6 -30 14 -52 17
-21 4 -50 12 -65 18 -31 13 -29 13 -106 33 -33 9 -67 19 -75 22 -8 4 -19 7
-25 8 -5 0 -14 3 -20 7 -5 3 -37 11 -70 18 -33 7 -64 15 -70 18 -5 4 -14 8
-20 9 -5 1 -39 10 -75 18 -36 9 -72 19 -80 22 -8 3 -19 5 -24 4 -4 -1 -13 2
-20 7 -6 5 -40 15 -76 22 -36 6 -69 15 -75 18 -5 3 -16 7 -25 8 -26 4 -154 35
-170 41 -8 3 -21 5 -28 4 -8 -1 -19 2 -25 7 -7 5 -43 15 -82 22 -38 7 -75 17
-81 21 -6 5 -14 6 -17 2 -4 -3 -17 -1 -30 5 -12 6 -65 18 -117 27 -52 9 -104
20 -115 25 -11 5 -65 16 -120 25 -55 9 -107 20 -116 24 -8 5 -57 15 -107 22
-51 7 -92 16 -92 20 0 4 -9 5 -21 2 -11 -3 -30 -1 -42 5 -12 6 -60 16 -107 22
-47 6 -92 14 -100 17 -8 3 -25 5 -37 4 -13 -1 -28 1 -35 6 -13 8 -198 37 -493
77 -93 12 -177 25 -185 29 -8 3 -78 11 -155 17 -77 7 -147 14 -155 17 -8 3
-34 5 -58 4 -24 -2 -48 2 -55 7 -7 5 -95 15 -197 22 -102 6 -192 14 -200 17
-8 2 -46 6 -85 8 -38 2 -119 8 -180 13 -60 6 -209 13 -330 17 -121 4 -226 9
-234 11 -8 3 -143 6 -300 8 -157 2 -322 6 -366 9 -44 3 -116 1 -160 -3z m745
-2720 c2520 -108 4908 -805 7075 -2062 2181 -1267 4043 -3083 5372 -5238 1277
-2072 2033 -4391 2228 -6830 35 -445 40 -595 40 -1220 0 -715 -13 -991 -75
-1602 -329 -3226 -1705 -6301 -3900 -8718 -176 -194 -490 -520 -501 -520 -5 0
-26 35 -48 78 -21 42 -60 112 -85 155 -300 506 -684 872 -1141 1088 -363 171
-743 252 -1190 253 -342 0 -643 -40 -1072 -145 -112 -27 -213 -49 -225 -49
-20 0 -36 29 -132 242 -88 194 -129 272 -209 393 -55 82 -110 161 -124 175
-14 14 -54 66 -91 115 -226 309 -540 594 -887 805 -38 24 -132 74 -207 112
-123 61 -138 72 -146 101 -48 166 -151 383 -253 532 -162 238 -358 421 -601
562 -43 26 -81 50 -84 55 -3 5 -15 80 -25 166 -72 582 -244 1093 -469 1394
l-58 76 30 64 c45 93 123 338 144 453 26 138 26 470 0 598 -113 562 -519 1097
-1166 1536 -158 108 -345 218 -400 237 -42 15 -43 17 -170 399 -215 651 -383
1294 -550 2110 -131 641 -313 1760 -350 2155 -5 52 -20 174 -34 270 -44 299
-56 382 -66 470 -5 47 -19 159 -30 250 -29 232 -65 590 -85 825 -21 253 -28
296 -65 372 -37 75 -96 128 -165 148 -67 20 -183 34 -276 35 l-76 0 33 -102
c58 -176 69 -240 68 -388 -1 -129 -3 -144 -57 -355 -55 -220 -101 -436 -197
-935 -57 -292 -70 -328 -159 -423 -93 -99 -181 -113 -285 -44 -85 56 -104 89
-146 250 -21 78 -49 180 -63 227 -23 76 -65 265 -97 435 -41 221 -94 444 -138
585 -45 143 -36 332 25 573 14 55 31 115 39 134 9 19 12 38 9 41 -3 4 -38 8
-76 10 -171 10 -391 -109 -462 -251 -31 -61 -49 -194 -67 -492 -54 -927 -81
-1249 -124 -1500 -9 -49 -32 -189 -51 -310 -20 -121 -43 -255 -51 -297 -8 -43
-20 -113 -28 -155 -326 -1762 -863 -3671 -1574 -5598 -241 -652 -615 -1590
-668 -1673 -8 -12 -34 -30 -57 -39 -163 -65 -418 -212 -582 -338 -120 -92
-354 -327 -442 -445 -131 -176 -251 -395 -317 -580 l-27 -75 -97 -50 c-317
-164 -606 -421 -814 -725 -102 -149 -182 -295 -276 -510 -32 -72 -119 -336
-146 -442 -50 -195 -95 -470 -112 -689 l-6 -86 -112 -48 c-458 -199 -832 -496
-1052 -835 -85 -132 -175 -335 -193 -435 -8 -47 21 -45 -311 -25 -640 38
-1243 -85 -1760 -358 -211 -111 -408 -246 -587 -401 -45 -39 -87 -71 -93 -71
-17 0 -689 676 -863 868 -562 621 -1072 1276 -1502 1932 -1448 2207 -2294
4712 -2479 7340 -49 689 -49 1491 0 2180 185 2628 1031 5133 2479 7340 431
657 944 1317 1502 1932 202 223 758 779 981 981 1495 1357 3169 2378 5032
3070 1464 544 3068 867 4650 936 274 12 1051 12 1320 1z"/>
<path d="M24710 43593 c0 -84 -74 -965 -85 -1010 -3 -12 -43 -80 -88 -150
-209 -320 -420 -763 -566 -1188 -251 -728 -397 -1532 -453 -2485 -24 -421 -13
-1183 23 -1535 17 -171 26 -450 19 -578 -9 -151 -32 -238 -72 -275 -16 -15
-54 -59 -84 -99 -143 -188 -361 -325 -619 -388 -176 -43 -279 -90 -420 -190
-156 -112 -326 -341 -388 -527 -20 -57 -31 -458 -48 -1676 l-11 -814 23 -24
c26 -28 74 -32 83 -8 3 9 6 52 6 96 0 236 111 603 259 853 212 359 542 652
930 825 135 61 199 75 276 61 73 -14 121 -40 189 -102 63 -58 117 -131 164
-226 34 -66 35 -67 127 -82 192 -33 339 -41 745 -41 406 0 553 8 745 41 92 15
93 16 127 82 47 95 101 168 164 226 68 62 116 88 189 102 77 14 141 0 276 -61
397 -177 729 -476 943 -848 138 -241 246 -600 246 -819 0 -46 5 -93 10 -104
15 -26 52 -24 79 5 l23 24 -11 814 c-17 1218 -28 1619 -48 1676 -62 186 -232
415 -388 527 -141 100 -244 147 -420 190 -258 63 -476 200 -619 388 -30 40
-68 84 -84 99 -40 37 -63 124 -72 275 -7 128 2 407 19 578 36 352 47 1114 23
1535 -56 953 -202 1757 -453 2485 -146 425 -357 868 -566 1188 -45 70 -85 138
-88 150 -11 45 -85 926 -85 1010 0 51 -4 87 -10 87 -6 0 -10 -36 -10 -87z
m105 -2819 c194 -50 335 -233 335 -434 0 -245 -205 -450 -450 -450 -201 0
-384 141 -434 335 -87 333 216 636 549 549z m0 -1200 c194 -50 335 -233 335
-434 0 -245 -205 -450 -450 -450 -201 0 -384 141 -434 335 -87 333 216 636
549 549z m0 -1200 c194 -50 335 -233 335 -434 0 -245 -205 -450 -450 -450
-201 0 -384 141 -434 335 -87 333 216 636 549 549z"/>
<path d="M24705 33788 c-14 -29 -25 -65 -25 -80 0 -14 -4 -28 -10 -30 -12 -4
-54 -162 -77 -288 -13 -73 -17 -151 -17 -335 l1 -240 35 -135 c20 -74 60 -202
88 -285 28 -82 59 -171 68 -197 9 -27 19 -48 22 -48 3 0 13 26 22 58 9 31 48
160 86 285 98 317 124 445 125 622 0 113 -4 157 -22 230 -27 107 -96 288 -116
305 -8 6 -11 18 -8 26 4 10 0 12 -13 7 -12 -4 -15 -3 -10 6 15 23 -84 151
-116 151 -5 0 -20 -24 -33 -52z"/>
</g>
</svg>
